<svg xmlns="http://www.w3.org/2000/svg" xml:space="preserve" width="1134.4327" height="300" viewBox="0 0 1134.4327 300"><path d="M0 0c-.887 1.988-3.881.621-3.881.621C-1.363-.977 0 0 0 0m-4.947.295c.31 0 .562.252.562.566a.564.564 0 0 1-.562.567.57.57 0 0 1-.574-.567.57.57 0 0 1 .574-.566m6.853-.49S.82-.172-.172-.766L3.02-.813c.052.042.052.042.111.083 0 0-1.588 4.304-5.815 4.832 0 0 1.022-3.184 4.59-4.297m2.24-.836a.428.428 0 0 1-.429.426.424.424 0 1 1 .429-.426m-17.027.218 3.188.047c-.991.594-2.073.571-2.073.571C-8.197.918-7.18 4.102-7.18 4.102c-4.224-.528-5.812-4.832-5.812-4.832l.111-.083m-1.025-.445c0-.238.187-.422.422-.422a.419.419 0 1 1 0 .838.417.417 0 0 1-.422-.416m.261-3.406c-2.296 1.637-5.648.371-5.648.371 2.977 2.266 2.953 5.885 2.953 5.885-3.787-1.944-3.81-6.526-3.81-6.526 4.638-1.377 6.505.27 6.505.27m1.284.898.029 1.551c-1.723.508-3.467.176-3.467.176 3.322 1.715 3.93 5.285 3.93 5.285-4.069-1.256-4.889-5.766-4.889-5.766 1.879-.933 3.342-1.226 4.397-1.246M5.998-1.781s-1.387.422-3.131-.18l-.004-1.586c1.063.016 2.145.272 4.102 1.307 0 0-.93 4.494-5.026 5.646 0 0 .694-3.551 4.059-5.187M-9.863-.188s1.4-.921 3.853.77c0 0-3.041 1.254-3.853-.77m21.308-21.511H9.664v-2.254h1.781zm-4.8 15.445-.922-1.101 4.984-4.983 1.01 1.014zm9.691.147L11.77-1.539 7.68-5.988l4.388-4.328zm-37.213.513c0-.238.189-.429.426-.429.23 0 .42.191.42.429 0 .235-.19.414-.42.414a.415.415 0 0 1-.426-.414m33.795-4.816c.783-.219 1.748-.387 2.93-.438 0 0 .533 1.594.298 3.535l-1.535-1.476c.166-.395.375-.787.637-1.176 0 0-.426.352-1.103.725zm-1.379-22.317H9.756v-2.254h1.783zM8.943-3.514l1.034 1.049C9.541-.988 8.648.801 6.445 1.857c0 0-.088-3.158 2.498-5.371m9.268-15.775c0-.234.191-.426.418-.426.238 0 .426.192.426.426a.427.427 0 0 1-.426.422.427.427 0 0 1-.418-.422M12.66 1.648c1.332-.66 2.403.036 2.403.036 1.482.726 2.56-.282 2.56-.282 1.035-.81.861-1.875.861-1.875 0-.812-.232-.875-.232-.875-.494-.336-.371.239-.371.239.017.005.111.402.111.402.197 1.836-1.459 2.103-1.459 2.103-1.752.307-2.187-1.314-2.187-1.314a2.994 2.994 0 0 1-.071-1.186l-2.193 2.186.106-1.848 4.89-4.898h1.752l-1.777 1.781a7.31 7.31 0 0 1 1.76-.324c2.498.148 2.757 2.543 2.757 2.543.66 2.492-1.703 4.508-1.703 4.508C18.289 4.203 15.9 4.309 15.9 4.309c-3.396.398-4.599 2.566-4.599 2.566-.401-.984-.295-2.451-.295-2.451.226-2.248 1.654-2.776 1.654-2.776m6.153-20.246s2.843 3.598 1.099 7.477c0 0-2.275-2.813-1.369-6.445 0 0-1.826 3.082-4.641 3.246 0 0 .436-2.453 4.911-4.278m-2.891 6.592a.422.422 0 1 1 0 .846.424.424 0 0 1 0-.846M7.412-5.16l1.277 1.322c-1.084.252-3.134.619-4.785-.615 0 0 .85-.969 3.508-.707m10.26-9.43s2.176 4.031-.217 7.551c0 0-1.76-3.168-.23-6.582 0 0-2.334 2.717-5.135 2.387 0 0 .849-2.344 5.582-3.356M2.729-45.408c0-.225.191-.42.425-.42.235 0 .426.195.426.42a.427.427 0 0 1-.426.428.427.427 0 0 1-.425-.428M4.85-45s2.39 2.053 2.416 4.617l-.858-.027c-.771-.68-1.904-2.121-2.531-5.035 0 0 4.035-2.18 7.557.215 0 0-3.168 1.75-6.584.23M.91-46.32s3.076 1.832 3.24 4.64c0 0-2.457-.433-4.277-4.91 0 0 3.594-2.844 7.479-1.098 0 0-2.819 2.278-6.442 1.368m-4.142-.875c3.207 1.48 3.914 3.972 3.914 3.972-2.491-.185-4.621-3.92-4.621-3.92 2.783-2.845 6.404-2.486 6.404-2.486-1.662 2.195-5.697 2.434-5.697 2.434m-1.778 1.304v-1.056c-.488.767-2.39 3.539-4.529 3.685 0 0 .723-2.488 3.939-3.945 0 0-4.029-.266-5.673-2.473 0 0 3.515-.32 6.263 2.418v-1.715h1.071V-45.891zm14.766 9.723v-2.258l10.082-8.355h2.016l-10.26 10.613zm-1.252-6.848s.918 1.094 1.369 2.637l-1.717.027c-.271-.847-.48-1.919-.531-3.273 0 0 3.717-1.234 6.688.918l-1.149.922c-1.264.07-3.008-.119-4.66-1.231m-19.998-2.556c0 .234-.19.427-.424.427a.428.428 0 0 1-.422-.427c0-.229.192-.416.422-.416a.42.42 0 0 1 .424.416m28.185 11.791s.577 3.541-1.468 5.476c0 0-1.254-2.16 1.009-6.441 0 0 4.493.93 5.649 5.027 0 0-3.557-.695-5.19-4.062m-4.158-7.473-1.486 1.211c.025-.379.082-.777.148-1.207 0 0 .537-.063 1.338-.004m-2.248-.547a.42.42 0 1 1 0 .84.42.42 0 1 1 0-.84m-35.363 6.162c0-.232.189-.424.428-.424a.424.424 0 0 1 0 .848.424.424 0 0 1-.428-.424m-3.08 8.194c3.508 3.324 3.017 5.765 3.017 5.765-2.562-1.172-3.144-4.707-3.144-4.707-.469 3.711-3.615 5.5-3.615 5.5-.217-4.246 3.742-6.558 3.742-6.558m.012-.592c0-.234.193-.424.421-.424a.424.424 0 1 1 0 .848.424.424 0 0 1-.421-.424m6.025 26.412-3.27 3.305c-2.025 2.023-4.429.687-4.429.687l6.441-6.41c.434 1.639 1.258 2.418 1.258 2.418m-2.518-2.023-5.558 5.566s-2.323-1.672-.518-5.566zm-2.408-27.817c2.879 3.889 1.965 6.211 1.965 6.211-2.318-1.605-2.273-5.184-2.273-5.184-1.116 3.571-4.524 4.79-4.524 4.79.529-4.227 4.832-5.817 4.832-5.817m2.576-11.015s.66.394 1.616.531l-1.061.258-.1-.137.1.137-4.693-4.948s-.536-.769-.03-1.275c0 0 .471-.383 1.127.066l4.574 3.996c-.462.239-1.476 1.081-1.533 1.372m8.907 2.007h-.6c-.033-2.648 2.523-4.746 2.523-4.746-3.451 1.446-6.576-.385-6.576-.385 3.574-2.31 7.557-.029 7.557-.029-.772 3.223-2.133 4.61-2.904 5.16m-9.694 5.246c2.156 4.323.862 6.454.862 6.454-2.01-1.981-1.346-5.498-1.346-5.498-1.715 3.322-5.285 3.931-5.285 3.931 1.256-4.07 5.769-4.887 5.769-4.887m12.24-6.648c.227-2.813 3.352-4.568 3.352-4.568-3.65.822-6.412-1.518-6.412-1.518 3.926-1.656 7.447 1.273 7.447 1.273-1.926 4.434-4.387 4.813-4.387 4.813M-23.072-7.904c4.801-.541 6.359 1.398 6.359 1.398-2.545 1.213-5.629-.615-5.629-.615 2.539 2.746 1.891 6.312 1.891 6.312-3.401-2.574-2.621-7.095-2.621-7.095m.226-30.713c1.377 4.633-.271 6.504-.271 6.504-1.629-2.301-.365-5.653-.365-5.653-2.272 2.977-5.887 2.953-5.887 2.953 1.939-3.785 6.523-3.804 6.523-3.804m35.119 3.789s-.302-.315-.402-.793l.895-.926a4.39 4.39 0 0 1-.493 1.719m-29.877 18.553 1.653-1.455h3.705c-.176.296-.115 1.429-.115 1.429zm9.213 10.871v2.076h6.463v-2.965H.205v-2.133h-2.072v-.949H.205v-2.313h-2.072v-6.937h-1.779l-2.463 2.461-2.252-2.254-1.629 1.633 3.734 3.734 1.928-1.929v9.576zm-3.318-9.936c0-4.926 3.078-7.199 6.889-7.199 3.806 0 6.892 2.264 6.892 7.199v14.027h-13.781zm-5.082 8.094s-.422-.609-2.006-.949l2.006-1.852zM.832-27.73c.451 0 .451.335.455.683v3.205h.924v-3.392c0-.496-.061-1.329-1.383-1.329-.857 0-1.373.403-1.373 1.27v3.451h.922v-3.006c0-.357-.045-.882.455-.882m2.367-1.776v-.861h-.931v-1.012h.816v-.861h-.816v-1.049h.943v-.863H1.346v4.646zm-.25 5.664h1.033l.268-.646c.078-.227.168-.465.221-.711h.009c.049.246.124.48.209.711l.282.646h.994l-.994-2.252 1.064-2.394H4.971l-.295.738a6.521 6.521 0 0 0-.205.695h-.012c-.07-.234-.123-.461-.201-.695l-.276-.738H2.949l.985 2.394zm2.799-10.31-.174.781h-.931l-.168-.781h-.911l1.079 4.646h.968l1.118-4.646zm-5.885 0-.22 3.345h-.016l-.148-1.146-.391-2.199h-.709l-.455 2.23-.153 1.031v.084h-.011l-.139-3.345h-.984l.404 4.646h1.215l.447-2.74h.012l.373 2.74H.32l.485-4.646zm-2.98 10.31h.914v-3.787h.963v-.859h-1.877zm-1.178.717v-15.773s.885.888 2.129.888h9.791v19.567H2.346s-1.5-4.612-6.641-4.682m-3.955-2.023c0 .335-.16.605-.623.582h-.123v-1.243l.16-.007c.422 0 .586.289.586.668M5.1-30.699h-.01l-.102-.705-.197-1.237h.645l-.235 1.237zM-19.658-9.984h.004c-.168-.129-1.342-1.204-3.127-1.42l.607-.573 6.404.028-1.99 1.988-1.004 1.014s-.711-.916-.894-1.037m35.715-25.168c0 .238-.19.425-.422.425a.419.419 0 0 1-.42-.425c0-.231.185-.424.42-.424.232 0 .422.193.422.424m2.472 7.234a.42.42 0 0 1 .42.426.41.41 0 0 1-.42.41.412.412 0 0 1-.422-.41.42.42 0 0 1 .422-.426m-2.715 3.137s-.849-2.336 2.114-6.153c0 0 4.265 1.684 4.693 5.924 0 0-3.377-1.301-4.402-4.896 0 0-.045 3.582-2.405 5.125m3.229-1.051s-.66 3.519-3.25 4.637c0 0-.434-2.457 3.15-5.703 0 0 3.911 2.406 3.594 6.656 0 0-3.103-1.871-3.494-5.59m-5.029-5.848s-1.6-1.91-.119-6.511c0 0 4.585.132 6.435 3.964 0 0-3.621-.066-5.816-3.089 0 0 1.185 3.375-.5 5.636m5.144 10.004s-1.263 3.348-4.012 3.996c0 0 0-2.488 4.094-5.066 0 0 3.43 3.051 2.379 7.18 0 0-2.732-2.381-2.461-6.114m-2.941-18.445a6.363 6.363 0 0 1 1.928 1.846s-1.53.193-3.319-.405zm-26.69 8.75-.103.703h-.016l-.096-.703-.197-1.242h.649zM-24.086-3.895c-2.9-3.121-1.35-7.433-1.35-7.433 4.825.291 6.02 2.476 6.02 2.476-2.721.745-5.436-1.586-5.436-1.586 2.018 3.149.766 6.543.766 6.543m18.1-37.347h2.787s.176 1.205.967 1.205H9.32v20.326l-1.148 1.215v-20.145h-10.35s-1.386-.121-2.478-1.453c0 0-.846 1.274-2.658 1.395h-10.1v20.019l-1.24-1.242v-20.115h11.277s1.391-.057 1.391-1.205m-21.612 21.394a.431.431 0 0 1-.425.426.429.429 0 0 1-.426-.426c0-.234.191-.427.426-.427a.43.43 0 0 1 .425.427m-.377 1.741c.821 3.646-1.517 6.402-1.517 6.402-1.654-3.92 1.275-7.447 1.275-7.447 4.432 1.929 4.809 4.394 4.809 4.394-2.811-.226-4.567-3.349-4.567-3.349m-3.125 1.923c-.949-4.154 2.551-7.117 2.551-7.117 4.026 2.668 3.971 5.156 3.971 5.156-2.727-.707-3.912-4.089-3.912-4.089.179 3.738-2.61 6.05-2.61 6.05m4.598 8.27s-.238 1.506 1.33 3.769h-5.308s.232-.621 3.978-3.769m14.022-7.84v.574l-2.76 2.758h-6.465l3.654-3.332zm-6.659-23.336c.018-.187.055.043.055.043v2.746l-.459-.5c.262-.691.348-1.687.404-2.289m-6.789 27.031a.421.421 0 1 1 .842 0 .42.42 0 0 1-.424.42.419.419 0 0 1-.418-.42m6.766-30.113c.23 0 .422.195.422.426a.424.424 0 1 1-.422-.426m2.945 31.498 3.737-3.674v2.842l-3.737 3.735zm-2.904-21.853h-1.781v-2.246h1.781zM5.633-8.332l-2.908-3.16.035-5.051s-.09-.828-.266-1.242h1.867l5.332 5.336zm-15.737-15.477v-.867h-.931v-1.012h.82v-.859h-.82v-1.051h.947v-.863h-1.867v4.645l-1.287-4.645h-.752l-1.346 4.652h.99l.553-2.234c.078-.268.111-.533.168-.795h.01c.049.266.072.533.142.811l.563 2.218zm1.157-10.316h-.981l-.172.785h-.931l-.168-.785h-.916l1.084 4.652h.967zm-.969 10.316h.924c.586 0 1.633-.066 1.633-1.334 0-.513-.202-.951-.657-1.205l.807-2.113h-.963l-.812 2.145h-.012v-2.145h-.92zm2.893 0h.914v-4.652h-.914zm-.686-10.386c-.258 0-.578.074-.787.234v.875c.213-.148.422-.252.693-.252.299 0 .533.205.533.51 0 .355-.287.496-.544.68-.53.355-.862.699-.862 1.377 0 .734.434 1.367 1.225 1.367.293 0 .555-.076.808-.221v-.895c-.183.161-.41.293-.668.293-.279 0-.459-.171-.459-.453 0-.769 1.399-.812 1.399-2.066 0-.826-.473-1.449-1.338-1.449m-4.57 3.855h-.727v-3.785h-.922v3.785h-.718v.867h2.367zm-4.59 11.897V-38.01h9.693c1.096-.027 2.229-.888 2.229-.888v15.658c-5.875.127-7.061 4.797-7.061 4.797zm.422-25.471c-.094 1.496-.366 2.586-.698 3.453h-1.718c.465-1.633 1.521-2.863 1.521-2.863-3.146 2.027-6.543.765-6.543.765 3.123-2.898 7.438-1.355 7.438-1.355m-5.832 31.355-.86.809c-2.091-.535-3.609-2.389-3.609-2.389.98 2.346.451 4.545.012 5.709l-.627.512c-1.817-3.434.193-7.199.193-7.199 2.785.672 4.201 1.765 4.891 2.558m-4.686-26.367c2.569-3.39 7.084-2.617 7.084-2.617.551 4.797-1.398 6.363-1.398 6.363-1.205-2.55.623-5.629.623-5.629-2.744 2.534-6.309 1.883-6.309 1.883m7.781 17.047h-1.775v-2.254h1.775z" style="fill:#807f83;fill-opacity:1;fill-rule:nonzero;stroke:none" transform="matrix(5.3035 0 0 -5.3035 169.227 36.462)"/><path d="M0 0a2.404 2.404 0 0 1-1.234.336c-1.381 0-2.299-.996-2.299-2.344 0-1.406 1.012-2.34 2.256-2.34.429 0 1.004.114 1.302.293l.053-.832c-.455-.191-1.012-.215-1.363-.215-1.897 0-3.156 1.219-3.156 3.122 0 1.843 1.337 3.07 3.164 3.07.463 0 .918-.07 1.345-.258z" style="fill:#807f83;fill-opacity:1;fill-rule:nonzero;stroke:none" transform="matrix(5.3035 0 0 -5.3035 387.25 149.181)"/><path d="M0 0c1.381 0 1.971 1.148 1.971 2.34 0 1.219-.651 2.351-1.971 2.344-1.322.007-1.973-1.125-1.973-2.344C-1.973 1.148-1.381 0 0 0m0 5.438c1.818 0 2.881-1.321 2.881-3.098C2.881.523 1.826-.754 0-.754c-1.826 0-2.881 1.277-2.881 3.094 0 1.777 1.063 3.098 2.881 3.098" style="fill:#807f83;fill-opacity:1;fill-rule:nonzero;stroke:none" transform="matrix(5.3035 0 0 -5.3035 416.513 172.24)"/><path d="M0 0h.855v-5.234h2.504v-.754H0Z" style="fill:#807f83;fill-opacity:1;fill-rule:nonzero;stroke:none" transform="matrix(5.3035 0 0 -5.3035 447.971 143.94)"/><path d="M0 0h.857v-5.234h2.504v-.754H0Z" style="fill:#807f83;fill-opacity:1;fill-rule:nonzero;stroke:none" transform="matrix(5.3035 0 0 -5.3035 480.445 143.94)"/><path d="M0 0h3.354v-.758H.857v-1.746h2.272v-.758H.857v-1.972h2.497v-.754H0Z" style="fill:#807f83;fill-opacity:1;fill-rule:nonzero;stroke:none" transform="matrix(5.3035 0 0 -5.3035 513.198 143.94)"/><path d="M0 0c-.42.277-.875.414-1.646.414-1.381 0-2.299-1.004-2.299-2.344 0-1.406 1.011-2.34 2.256-2.34.591 0 .746.059.959.102v1.82h-1.26v.703H.129v-3.113c-.326-.113-.893-.265-1.828-.265-1.895 0-3.155 1.218-3.155 3.121 0 1.843 1.338 3.07 3.165 3.07.875 0 1.259-.129 1.757-.301z" style="fill:#807f83;fill-opacity:1;fill-rule:nonzero;stroke:none" transform="matrix(5.3035 0 0 -5.3035 572.106 149.596)"/><path d="M0 0h3.354v-.758H.859v-1.746h2.272v-.758H.859v-1.972h2.495v-.754H0Z" style="fill:#807f83;fill-opacity:1;fill-rule:nonzero;stroke:none" transform="matrix(5.3035 0 0 -5.3035 590.813 143.94)"/><path d="M0 0c1.381 0 1.973 1.148 1.973 2.34 0 1.219-.653 2.351-1.973 2.344-1.32.007-1.973-1.125-1.973-2.344C-1.973 1.148-1.381 0 0 0m0 5.438c1.818 0 2.881-1.321 2.881-3.098C2.881.523 1.826-.754 0-.754c-1.826 0-2.881 1.277-2.881 3.094 0 1.777 1.063 3.098 2.881 3.098" style="fill:#807f83;fill-opacity:1;fill-rule:nonzero;stroke:none" transform="matrix(5.3035 0 0 -5.3035 661.634 172.24)"/><path d="M0 0h3.18v-.758H.857v-1.746h2.221v-.758H.857v-2.726H0Z" style="fill:#807f83;fill-opacity:1;fill-rule:nonzero;stroke:none" transform="matrix(5.3035 0 0 -5.3035 692.864 143.94)"/><path d="M0 0h3.354v-.758H.857v-1.746h2.272v-.758H.857v-1.972h2.497v-.754H0Z" style="fill:#807f83;fill-opacity:1;fill-rule:nonzero;stroke:none" transform="matrix(5.3035 0 0 -5.3035 748.209 143.94)"/><path d="M0 0h1.168l2.641-4.82h.015V0h.86v-5.988H3.586L.875-1.066H.859v-4.922H0Z" style="fill:#807f83;fill-opacity:1;fill-rule:nonzero;stroke:none" transform="matrix(5.3035 0 0 -5.3035 782.962 143.94)"/><path d="M0 0c-.422.277-.875.414-1.648.414-1.379 0-2.297-1.004-2.297-2.344 0-1.406 1.011-2.34 2.254-2.34.593 0 .746.059.961.102v1.82h-1.26v.703H.129v-3.113c-.328-.113-.893-.265-1.828-.265-1.895 0-3.156 1.218-3.156 3.121 0 1.843 1.339 3.07 3.164 3.07.875 0 1.261-.129 1.759-.301z" style="fill:#807f83;fill-opacity:1;fill-rule:nonzero;stroke:none" transform="matrix(5.3035 0 0 -5.3035 849.71 149.596)"/><path d="M689.523 281.022h3.409v-23.818h-3.41z" style="fill:#807f83;fill-opacity:1;fill-rule:nonzero;stroke:none;stroke-width:3.97763" transform="matrix(1.33333 0 0 -1.33333 -51.175 518.635)"/><path d="M0 0h1.164l2.643-4.82h.017V0h.858v-5.988H3.584L.873-1.066H.855v-4.922H0Z" style="fill:#807f83;fill-opacity:1;fill-rule:nonzero;stroke:none" transform="matrix(5.3035 0 0 -5.3035 890.523 143.94)"/><path d="M0 0h3.352v-.758H.855v-1.746h2.274v-.758H.855v-1.972h2.497v-.754H0Z" style="fill:#807f83;fill-opacity:1;fill-rule:nonzero;stroke:none" transform="matrix(5.3035 0 0 -5.3035 933.386 143.94)"/><path d="M0 0h3.352v-.758H.855v-1.746h2.274v-.758H.855v-1.972h2.497v-.754H0Z" style="fill:#807f83;fill-opacity:1;fill-rule:nonzero;stroke:none" transform="matrix(5.3035 0 0 -5.3035 968.418 143.94)"/><path d="M0 0h.729c.814 0 1.294.359 1.294.934 0 .543-.41.882-1.199.882H0Zm-.857 2.574H.609c1.184 0 2.325-.191 2.325-1.621 0-.73-.541-1.246-1.237-1.363v-.02c.268-.101.395-.23.584-.597l1.133-2.387h-.978l-.918 2.078c-.266.582-.549.582-1.002.582H0v-2.66h-.857z" style="fill:#807f83;fill-opacity:1;fill-rule:nonzero;stroke:none" transform="matrix(5.3035 0 0 -5.3035 1007.49 157.593)"/><path d="M818.942 281.022h3.41v-23.818h-3.41z" style="fill:#807f83;fill-opacity:1;fill-rule:nonzero;stroke:none;stroke-width:3.97763" transform="matrix(1.33333 0 0 -1.33333 -51.175 518.635)"/><path d="M0 0h1.166l2.641-4.82h.017V0h.858v-5.988H3.584L.875-1.066H.857v-4.922H0Z" style="fill:#807f83;fill-opacity:1;fill-rule:nonzero;stroke:none" transform="matrix(5.3035 0 0 -5.3035 1063.073 143.94)"/><path d="M0 0c-.42.277-.875.414-1.646.414-1.381 0-2.299-1.004-2.299-2.344 0-1.406 1.013-2.34 2.256-2.34.591 0 .746.059.96.102v1.82H-1.99v.703H.129v-3.113c-.326-.113-.893-.265-1.826-.265-1.895 0-3.157 1.218-3.157 3.121 0 1.843 1.338 3.07 3.165 3.07.875 0 1.261-.129 1.757-.301z" style="fill:#807f83;fill-opacity:1;fill-rule:nonzero;stroke:none" transform="matrix(5.3035 0 0 -5.3035 1129.812 149.596)"/><path d="M0 0c-.438.172-.678.25-1.125.25-.48 0-1.045-.172-1.045-.797 0-1.152 2.572-.887 2.572-2.855 0-1.282-.986-1.786-2.187-1.786-.42 0-.832.122-1.227.25l.086.797c.293-.121.807-.293 1.244-.293.489 0 1.174.274 1.174.977 0 1.34-2.572.969-2.572 2.832 0 1.063.842 1.629 1.922 1.629.394 0 .865-.07 1.277-.215z" style="fill:#807f83;fill-opacity:1;fill-rule:nonzero;stroke:none" transform="matrix(5.3035 0 0 -5.3035 379.75 194.282)"/><path d="M0 0h3.354v-.758H.857v-1.746h2.274v-.758H.857v-1.972h2.497v-.754H0Z" style="fill:#807f83;fill-opacity:1;fill-rule:nonzero;stroke:none" transform="matrix(5.3035 0 0 -5.3035 393.797 189.496)"/><path d="M0 0c1.381 0 1.973 1.148 1.973 2.34 0 1.219-.653 2.351-1.973 2.344-1.32.007-1.973-1.125-1.973-2.344C-1.973 1.148-1.379 0 0 0m0 5.438c1.818 0 2.883-1.321 2.883-3.098C2.883.523 1.828-.754 0-.754c-1.826 0-2.881 1.277-2.881 3.094 0 1.777 1.065 3.098 2.881 3.098" style="fill:#807f83;fill-opacity:1;fill-rule:nonzero;stroke:none" transform="matrix(5.3035 0 0 -5.3035 438.007 217.795)"/><path d="M0 0c0-1.684-.848-2.582-2.322-2.582-1.475 0-2.324.898-2.324 2.582v3.508h.857V.109c0-1.148.359-1.937 1.467-1.937 1.105 0 1.467.789 1.467 1.937v3.399H0Z" style="fill:#807f83;fill-opacity:1;fill-rule:nonzero;stroke:none" transform="matrix(5.3035 0 0 -5.3035 489.964 208.1)"/><path d="M0 0h.857v-5.234h2.504v-.754H0Z" style="fill:#807f83;fill-opacity:1;fill-rule:nonzero;stroke:none" transform="matrix(5.3035 0 0 -5.3035 503.585 189.496)"/><path d="M0 0h1.166l2.641-4.82h.017V0h.858v-5.988H3.584L.875-1.066H.857v-4.922H0Z" style="fill:#807f83;fill-opacity:1;fill-rule:nonzero;stroke:none" transform="matrix(5.3035 0 0 -5.3035 549.96 189.496)"/><path d="m0 0-1.191-2.965h2.384zm-.42.809h.9L3.012-5.18h-.936l-.609 1.512h-2.932l-.609-1.512h-.901z" style="fill:#807f83;fill-opacity:1;fill-rule:nonzero;stroke:none" transform="matrix(5.3035 0 0 -5.3035 600.633 193.785)"/><path d="M0 0h-1.861v.758h4.58V0H.857v-5.23H0Z" style="fill:#807f83;fill-opacity:1;fill-rule:nonzero;stroke:none" transform="matrix(5.3035 0 0 -5.3035 629.668 193.515)"/><path d="M528.99 246.854h3.4v-23.818h-3.4z" style="fill:#807f83;fill-opacity:1;fill-rule:nonzero;stroke:none;stroke-width:3.97763" transform="matrix(1.33333 0 0 -1.33333 -51.175 518.635)"/><path d="M0 0c1.381 0 1.973 1.148 1.973 2.34 0 1.219-.653 2.351-1.973 2.344-1.32.007-1.973-1.125-1.973-2.344C-1.973 1.148-1.381 0 0 0m0 5.438c1.818 0 2.881-1.321 2.881-3.098C2.881.523 1.826-.754 0-.754c-1.826 0-2.881 1.277-2.881 3.094 0 1.777 1.063 3.098 2.881 3.098" style="fill:#807f83;fill-opacity:1;fill-rule:nonzero;stroke:none" transform="matrix(5.3035 0 0 -5.3035 685.914 217.795)"/><path d="M0 0h1.168l2.641-4.82h.017V0h.858v-5.988H3.586L.875-1.066H.859v-4.922H0Z" style="fill:#807f83;fill-opacity:1;fill-rule:nonzero;stroke:none" transform="matrix(5.3035 0 0 -5.3035 713.125 189.496)"/><path d="m0 0-1.191-2.965h2.384zm-.42.809h.9L3.01-5.18h-.934l-.609 1.512h-2.934l-.607-1.512h-.901z" style="fill:#807f83;fill-opacity:1;fill-rule:nonzero;stroke:none" transform="matrix(5.3035 0 0 -5.3035 763.809 193.785)"/><path d="M0 0h.857v-5.234h2.504v-.754H0Z" style="fill:#807f83;fill-opacity:1;fill-rule:nonzero;stroke:none" transform="matrix(5.3035 0 0 -5.3035 789.84 189.496)"/><path d="M0 0c0-1.684-.85-2.582-2.324-2.582-1.477 0-2.324.898-2.324 2.582v3.508h.857V.109c0-1.148.361-1.937 1.467-1.937 1.105 0 1.465.789 1.465 1.937v3.399H0Z" style="fill:#807f83;fill-opacity:1;fill-rule:nonzero;stroke:none" transform="matrix(5.3035 0 0 -5.3035 860.96 208.1)"/><path d="M0 0h1.166l2.641-4.82h.017V0h.858v-5.988H3.584L.875-1.066H.857v-4.922H0Z" style="fill:#807f83;fill-opacity:1;fill-rule:nonzero;stroke:none" transform="matrix(5.3035 0 0 -5.3035 874.571 189.496)"/><path d="M723.11 246.854h3.409v-23.818h-3.41z" style="fill:#807f83;fill-opacity:1;fill-rule:nonzero;stroke:none;stroke-width:3.97763" transform="matrix(1.33333 0 0 -1.33333 -51.175 518.635)"/><path d="M0 0h-1.072l-2.256 5.988h.961L-.523.754h.017l1.895 5.234h.9z" style="fill:#807f83;fill-opacity:1;fill-rule:nonzero;stroke:none" transform="matrix(5.3035 0 0 -5.3035 944.977 221.255)"/><path d="M0 0h3.354v-.758H.859v-1.746h2.272v-.758H.859v-1.972h2.495v-.754H0Z" style="fill:#807f83;fill-opacity:1;fill-rule:nonzero;stroke:none" transform="matrix(5.3035 0 0 -5.3035 967.175 189.496)"/><path d="M0 0h.73c.813 0 1.293.359 1.293.934 0 .543-.41.882-1.199.882H0Zm-.857 2.574H.609c1.184 0 2.325-.191 2.325-1.621 0-.73-.541-1.246-1.235-1.363v-.02c.266-.101.395-.23.582-.597l1.133-2.387h-.978L1.52-1.336c-.268.582-.551.582-1.004.582H0v-2.66h-.857z" style="fill:#807f83;fill-opacity:1;fill-rule:nonzero;stroke:none" transform="matrix(5.3035 0 0 -5.3035 1002.02 203.149)"/><path d="M0 0c-.438.172-.678.25-1.123.25-.481 0-1.047-.172-1.047-.797 0-1.152 2.572-.887 2.572-2.855 0-1.282-.984-1.786-2.185-1.786-.42 0-.832.122-1.227.25l.086.797c.291-.121.807-.293 1.244-.293.489 0 1.174.274 1.174.977 0 1.34-2.572.969-2.572 2.832 0 1.063.84 1.629 1.92 1.629.394 0 .867-.07 1.279-.215z" style="fill:#807f83;fill-opacity:1;fill-rule:nonzero;stroke:none" transform="matrix(5.3035 0 0 -5.3035 1045.463 194.282)"/><path d="M832.848 246.854h3.41v-23.818h-3.41z" style="fill:#807f83;fill-opacity:1;fill-rule:nonzero;stroke:none;stroke-width:3.97763" transform="matrix(1.33333 0 0 -1.33333 -51.175 518.635)"/><path d="M0 0h-1.861v.758h4.58V0H.857v-5.23H0Z" style="fill:#807f83;fill-opacity:1;fill-rule:nonzero;stroke:none" transform="matrix(5.3035 0 0 -5.3035 1083.738 193.515)"/><path d="m0 0-2.34 3.484h1.002L.445.797l1.743 2.687h1.003L.857 0v-2.504H0Z" style="fill:#807f83;fill-opacity:1;fill-rule:nonzero;stroke:none" transform="matrix(5.3035 0 0 -5.3035 1117.082 207.976)"/><path d="M0 0v4.461h-1.672v.785H0v2.621h.848V0Zm-1.408 1.52c-.662.304-1.604 1.394-2.002 2.359-.238-.875-1.274-2.082-2.002-2.52l-.68.563c1.571.91 2.231 2.332 2.231 4.266V7.43h.892V6.188c0-1.958.729-3.149 2.129-4.024z" style="fill:#807f83;fill-opacity:1;fill-rule:nonzero;stroke:none" transform="matrix(5.3035 0 0 -5.3035 393.973 279.697)"/><path d="M0 0c-1.207 0-1.918-.32-1.918-.758 0-.422.729-.769 1.918-.769 1.17 0 1.916.339 1.916.761C1.916-.328 1.188 0 0 0m0-2.145c-1.875 0-2.852.555-2.852 1.379C-2.852.047-1.875.645 0 .645 1.883.645 2.85.02 2.85-.766c0-.824-.967-1.379-2.85-1.379m-.434-1.242h-3.3v.696H3.73v-.696H.473v-.625h2.293V-5.91h-4.633v-.606h4.818v-.679h-5.719v1.937h4.625v.574h-4.625v.672h2.334z" style="fill:#807f83;fill-opacity:1;fill-rule:nonzero;stroke:none" transform="matrix(5.3035 0 0 -5.3035 473.142 241.06)"/><path d="M0 0v4.086h-.959V.355h-.822v7.333h.822v-2.79H0v2.969h.824V0Zm-3.91 1.75-1.494-.016v5.168h2.664v-.769h-1.824V2.531l.966.008a11.39 11.39 0 0 1 1.375.106v-.77c-.254-.043-.754-.105-1.687-.125" style="fill:#807f83;fill-opacity:1;fill-rule:nonzero;stroke:none" transform="matrix(5.3035 0 0 -5.3035 576.912 279.697)"/><path d="M0 0v-2.074h-.84v5.008H0V.777h1.063V0Zm-3.926.027c-.748 0-1.129-.257-1.129-.632 0-.387.381-.653 1.129-.653.746 0 1.11.278 1.11.66 0 .375-.364.625-1.11.625m-1.258 2.942h2.486v-.688h-2.486zm4.329-7.903v1.672h-4.649v.707H.01v-2.379zM-5.973-.605c0 .742.799 1.285 2.047 1.285 1.289 0 2.018-.543 2.018-1.285 0-.743-.746-1.309-2.035-1.309-1.223 0-2.03.566-2.03 1.309m-.33 2.367h4.727v-.688h-4.727z" style="fill:#807f83;fill-opacity:1;fill-rule:nonzero;stroke:none" transform="matrix(5.3035 0 0 -5.3035 671.008 253.532)"/><path d="M0 0h-.832c.018.105.391 2.199.416 3.422h-4.955v.762H.518C.492 3.359.271 1.313 0 0m-6.158-1.773v.753h1.746v2.7h.857v-2.7h1.112v2.7h.857v-2.7h2.893v-.753z" style="fill:#807f83;fill-opacity:1;fill-rule:nonzero;stroke:none" transform="matrix(5.3035 0 0 -5.3035 760.35 264.802)"/><path d="M0 0c0-.59.832-.891 2.045-.891C3.24-.891 4.09-.59 4.09 0c0 .547-.85.859-2.045.859C.832.859 0 .547 0 0m4.48 3.363h-.867c.018.063.307 1.227.383 1.957H-.832v.754h5.795c-.008-.672-.254-1.984-.483-2.711M2.045-1.598c-1.9 0-2.971.66-2.971 1.59 0 .922 1.071 1.582 2.961 1.582 1.91 0 2.979-.66 2.979-1.582 0-.93-1.061-1.59-2.969-1.59m-3.733 3.746v.743h2.792v1.5h.865v-1.5h3.808v-.743Z" style="fill:#807f83;fill-opacity:1;fill-rule:nonzero;stroke:none" transform="matrix(5.3035 0 0 -5.3035 828.083 271.887)"/><path d="M0 0v-3.336h1.111v-.769H0v-3.762h-.85V0Zm-2.248-4.586h-.84c.016.098.305 2.004.322 2.934h-3.291v.75h4.207c.008-1.02-.195-2.586-.398-3.684m-3.316-1.906h-.901v.754h1.444v2.492h.839V-5.73c.703 0 2.594.152 2.994.214v-.742a38.823 38.823 0 0 0-4.376-.234" style="fill:#807f83;fill-opacity:1;fill-rule:nonzero;stroke:none" transform="matrix(5.3035 0 0 -5.3035 945.267 237.974)"/><path d="M0 0v4.086h-.959V.355h-.822v7.333h.822v-2.79H0v2.969h.822V0Zm-3.912 1.75-1.492-.016v5.168h2.664v-.769h-1.824V2.531l.966.008a11.39 11.39 0 0 1 1.375.106v-.77c-.254-.043-.756-.105-1.689-.125" style="fill:#807f83;fill-opacity:1;fill-rule:nonzero;stroke:none" transform="matrix(5.3035 0 0 -5.3035 1034.152 279.697)"/><path d="M0 0v-2.074h-.84v5.008H0V.777h1.061V0Zm-3.928.027c-.746 0-1.127-.257-1.127-.632 0-.387.381-.653 1.127-.653.748 0 1.112.278 1.112.66 0 .375-.364.625-1.112.625m-1.256 2.942h2.486v-.688h-2.486zm4.329-7.903v1.672h-4.651v.707H.01v-2.379zM-5.973-.605c0 .742.799 1.285 2.045 1.285 1.291 0 2.02-.543 2.02-1.285 0-.743-.746-1.309-2.037-1.309-1.221 0-2.028.566-2.028 1.309m-.33 2.367h4.725v-.688h-4.725z" style="fill:#807f83;fill-opacity:1;fill-rule:nonzero;stroke:none" transform="matrix(5.3035 0 0 -5.3035 1128.248 253.532)"/><path d="M0 0h1.25c.402 0 .738.223.738.754v2.383c0 .373-.175.695-.666.695H-9.203c-.402 0-.67-.262-.67-.695V1.961c0-.395.191-.703.67-.703h.748V-9.371h-.748c-.44 0-.67-.293-.67-.695v-1.184c0-.359.176-.705.67-.705H1.324c.442 0 .662.297.662.705v2.773c0 .579-.394.75-.726.75H.014c-.379 0-.739-.234-.739-.75l.008-.894H-5.34v4.269h3.401v-.828c0-.48.334-.66.632-.66h1.053c.318 0 .643.156.643.66v4.18c0 .406-.258.658-.635.658h-1.051c-.416 0-.642-.275-.642-.658v-.771H-5.34v3.779h4.613V.754C-.727.316-.432 0 0 0" style="fill:#f78f1e;fill-opacity:1;fill-rule:nonzero;stroke:none" transform="matrix(5.3035 0 0 -5.3035 414.41 59.354)"/><path d="M0 0h1.244c.404 0 .74.223.74.754v2.383c0 .373-.17.695-.668.695H-9.205c-.402 0-.668-.262-.668-.695V1.961c0-.395.187-.703.668-.703h.752V-9.371h-.752c-.443 0-.668-.293-.668-.695v-1.184c0-.359.174-.705.668-.705H1.32c.444 0 .659.297.659.705v2.773c0 .579-.393.75-.725.75H.008c-.375 0-.735-.234-.735-.75l.004-.894H-5.34v4.269h3.399l-.002-.828c0-.48.338-.66.632-.66H-.26c.323 0 .641.156.641.66l.004 4.18c0 .406-.256.658-.631.658h-1.055c-.416 0-.64-.275-.64-.658v-.771H-5.34v3.779h4.61V.754C-.73.316-.438 0 0 0" style="fill:#f78f1e;fill-opacity:1;fill-rule:nonzero;stroke:none" transform="matrix(5.3035 0 0 -5.3035 791.807 59.354)"/><path d="M0 0h1.246c.402 0 .738.223.738.754v2.383c0 .373-.175.695-.664.695H-9.207c-.402 0-.67-.262-.67-.695V1.961c0-.395.195-.703.67-.703h.752V-9.371h-.752c-.439 0-.67-.293-.67-.695v-1.184c0-.359.174-.705.67-.705H1.32c.442 0 .66.297.66.705v2.773c0 .579-.388.75-.724.75H.012c-.381 0-.737-.234-.737-.75v-.894H-5.34v4.269h3.399v-.828c0-.48.332-.66.632-.66h1.051c.319 0 .641.156.641.66v4.18c0 .406-.254.658-.633.658h-1.051c-.416 0-.64-.275-.64-.658v-.771H-5.34v3.779h4.61V.754C-.73.316-.436 0 0 0" style="fill:#f78f1e;fill-opacity:1;fill-rule:nonzero;stroke:none" transform="matrix(5.3035 0 0 -5.3035 860.908 59.354)"/><path d="M0 0h-3.801c-.486 0-.67-.313-.67-.695v-1.18c0-.363.174-.699.67-.699h.563v-7.442L-8.682 0h-4.121c-.57 0-.674-.477-.674-.695v-1.18c0-.387.215-.699.674-.699h.608v-10.637h-.608c-.459 0-.674-.342-.674-.703v-1.18c0-.422.233-.703.674-.703h3.653c.484 0 .654.363.654.703v1.18c0 .398-.215.703-.668.703h-.496v9.199l6.369-11.775h2.584v13.213H0c.496 0 .668.336.668.699v1.18C.668-.309.459 0 0 0" style="fill:#f78f1e;fill-opacity:1;fill-rule:nonzero;stroke:none" transform="matrix(5.3035 0 0 -5.3035 504.694 39.03)"/><path d="M0 0h-3.803c-.482 0-.67-.313-.67-.695v-1.18c0-.363.182-.699.67-.699h.563v-7.442L-8.68 0h-4.123c-.564 0-.676-.477-.676-.695v-1.18c0-.387.219-.699.676-.699h.608v-10.637h-.608c-.457 0-.676-.342-.676-.703v-1.18c0-.422.237-.703.676-.703h3.653c.484 0 .654.363.654.703v1.18c0 .398-.217.703-.67.703h-.494v9.199l6.373-11.775h2.578v13.213H0c.492 0 .672.336.672.699v1.18C.672-.309.459 0 0 0" style="fill:#f78f1e;fill-opacity:1;fill-rule:nonzero;stroke:none" transform="matrix(5.3035 0 0 -5.3035 730.444 39.03)"/><path d="M0 0h-3.805c-.484 0-.668-.313-.668-.695v-1.18c0-.363.182-.699.668-.699h.563v-7.442L-8.68 0h-4.123c-.568 0-.672-.477-.672-.695v-1.18c0-.387.211-.699.672-.699h.606v-10.637h-.606c-.461 0-.672-.342-.672-.703v-1.18c0-.422.231-.703.672-.703h3.653c.484 0 .654.363.654.703v1.18c0 .398-.215.703-.67.703h-.498v9.199l6.373-11.775h2.582v13.213H0c.492 0 .668.336.668.699v1.18C.668-.309.455 0 0 0" style="fill:#f78f1e;fill-opacity:1;fill-rule:nonzero;stroke:none" transform="matrix(5.3035 0 0 -5.3035 1063.29 39.03)"/><path d="M0 0v-.014C0-.65-.273-1.143-.725-1.461c-.449-.307-1.097-.357-1.904-.357h-1.31v3.711h1.65c.637-.004 1.351-.153 1.73-.473C-.191 1.105 0 .627 0 0m4.496-8.74H3.445L1.084-3.865C2.768-3.01 3.58-1.717 3.58.064a4.834 4.834 0 0 1-1.06 3.055C1.818 4.008.654 4.467-.961 4.467L-7.6 4.463c-.453 0-.668-.317-.668-.695V2.592c0-.406.235-.703.668-.703h.637V-8.74H-7.6c-.437 0-.668-.313-.668-.696v-1.183c0-.36.192-.705.668-.705h4.123c.42 0 .657.287.657.693v1.18c0 .424-.223.711-.67.711h-.449v4.258h1.949l3.178-6.836 3.304-.006c.477 0 .674.283.674.693v1.18c0 .441-.219.711-.67.711" style="fill:#f78f1e;fill-opacity:1;fill-rule:nonzero;stroke:none" transform="matrix(5.3035 0 0 -5.3035 921.774 62.7)"/><path d="M0 0c.449 0 .674.258.674.695v1.18c0 .422-.211.699-.674.699h-4.879c-.443 0-.672-.277-.672-.695V.703c0-.379.176-.703.672-.703h.875v-10.629h-.875c-.434 0-.672-.269-.672-.695v-1.184c0-.359.205-.705.672-.705H.014c.441 0 .66.318.66.693v1.18c0 .379-.16.711-.674.711h-.893V0Z" style="fill:#f78f1e;fill-opacity:1;fill-rule:nonzero;stroke:none" transform="matrix(5.3035 0 0 -5.3035 982.184 52.683)"/><path d="M0 0h-4.609c-.295.004-.496-.109-.598-.262a.716.716 0 0 1-.107-.41v-1.301l-.002-.062a.715.715 0 0 1 .107-.403c.104-.146.301-.25.586-.248h2.029v-1.699c.004-.783-.656-1.013-1.035-1.037h-4.064c-.688.016-1.002.324-1.02 1.063v8.265c0 .797.652 1.01 1.018 1.035h5.113V3.633c0-.531.459-.629.603-.629h1.483c.092 0 .238.014.379.105.138.086.252.274.248.528v1.551c.004 1.179-.539 1.82-1.127 2.136-.584.317-1.197.332-1.399.332h-6.146c-.182 0-.893-.008-1.574-.377-.682-.365-1.323-1.119-1.321-2.525V-5.273c0-.219.018-.926.397-1.59.377-.668 1.135-1.282 2.527-1.278l5.748-.009c.235 0 .946.009 1.616.377C-.479-7.406.135-6.66.131-5.25V0Z" style="fill:#f78f1e;fill-opacity:1;fill-rule:nonzero;stroke:none" transform="matrix(5.3035 0 0 -5.3035 575.431 79.532)"/><path d="M0 0h-4.613c-.293.004-.494-.109-.592-.262a.683.683 0 0 1-.106-.41v-1.363c0-.102.002-.258.102-.403.102-.146.301-.25.59-.248h2.025v-1.699c.004-.783-.66-1.013-1.033-1.037h-4.066c-.688.016-1.004.324-1.024 1.063v8.265c0 .797.654 1.01 1.02 1.035h5.113V3.633c0-.531.461-.629.604-.629h1.486c.092 0 .236.014.377.105.14.086.248.274.244.528v1.551c.004 1.179-.533 1.82-1.121 2.136-.586.317-1.207.332-1.399.332h-6.15c-.182 0-.893-.008-1.57-.377-.688-.365-1.328-1.119-1.325-2.525V-5.273c0-.219.024-.926.399-1.59.377-.668 1.137-1.282 2.527-1.278l5.539-.009H-2.766c.233 0 .95.009 1.618.377C-.48-7.406.131-6.66.127-5.25L.131 0Z" style="fill:#f78f1e;fill-opacity:1;fill-rule:nonzero;stroke:none" transform="matrix(5.3035 0 0 -5.3035 1133.738 79.532)"/><path d="M0 0h-5.309l1.899 5.145c.424 1.082.215 1.986-.883 1.986h-.734c-.231 0-.295-.014-.205.265l.902 2.78c.176.469.154.433.619.465l2.945.004c.385 0 .618.265.618.617V12.6c0 .345-.174.623-.618.623h-10.652c-.35 0-.621-.215-.621-.619v-1.331c0-.386.225-.628.621-.628l4.217-.004-1.262-3.496c-.383-.989-.369-2.176 1.067-2.176h.621c.187 0 .214-.033.121-.281l-1.44-3.84C-8.277.355-8.398-.016-8.725 0h-3.453c-.365 0-.623-.215-.623-.631v-1.301c0-.373.205-.636.61-.636H0c.445 0 .623.291.623.627v1.3C.623-.25.418 0 0 0" style="fill:#f78f1e;fill-opacity:1;fill-rule:nonzero;stroke:none" transform="matrix(5.3035 0 0 -5.3035 649.804 109.157)"/></svg>